<svg width="18" height="15" viewBox="0 0 18 15" fill="none" xmlns="http://www.w3.org/2000/svg">
<path d="M1.5 4.5L1.5 11.25C1.5 12.4926 2.50736 13.5 3.75 13.5H14.25C15.4926 13.5 16.5 12.4926 16.5 11.25V4.5C16.5 3.25736 15.4926 2.25 14.25 2.25H13.125L12.375 1.125C12.0739 0.631941 11.5399 0.375 11 0.375H7C6.46013 0.375 5.92611 0.631941 5.625 1.125L4.875 2.25H3.75C2.50736 2.25 1.5 3.25736 1.5 4.5Z" stroke="#2F384C" stroke-opacity="0.63" stroke-width="1.5" stroke-linecap="round" stroke-linejoin="round"/>
<path d="M9 10.5C10.2426 10.5 11.25 9.49264 11.25 8.25C11.25 7.00736 10.2426 6 9 6C7.75736 6 6.75 7.00736 6.75 8.25C6.75 9.49264 7.75736 10.5 9 10.5Z" stroke="#2F384C" stroke-opacity="0.63" stroke-width="1.5" stroke-linecap="round" stroke-linejoin="round"/>
</svg>

