<svg width="22" height="22" viewBox="0 0 22 22" fill="none" xmlns="http://www.w3.org/2000/svg">
<path d="M7 7.00009L7 6.50012C7 5.10453 7 4.40674 7.17225 3.83893C7.56005 2.56054 8.56045 1.56014 9.83884 1.17234C10.4066 1.00009 11.1044 1.00009 12.5 1.00009L14.6 1.00009C16.8402 1.00009 17.9603 1.00009 18.816 1.43607C19.5686 1.81956 20.1805 2.43148 20.564 3.18413C21 4.03978 21 5.15988 21 7.40009L21 14.6001C21 16.8403 21 17.9604 20.564 18.8161C20.1805 19.5687 19.5686 20.1806 18.816 20.5641C17.9603 21.0001 16.8402 21.0001 14.6 21.0001H12.5C11.1044 21.0001 10.4067 21.0001 9.83888 20.8279C8.56046 20.4401 7.56003 19.4396 7.17223 18.1612C7 17.5934 7 16.8957 7 15.5001L7 15.0001M1 11.0001H16M16 11.0001L12 7.00009M16 11.0001L12 15.0001" stroke="black" stroke-width="2" stroke-linecap="round" stroke-linejoin="round"/>
</svg>
